<?xml version="1.0" encoding="utf-8" standalone="no"?>
<!DOCTYPE svg PUBLIC "-//W3C//DTD SVG 1.1//EN"
  "http://www.w3.org/Graphics/SVG/1.1/DTD/svg11.dtd">
<svg height="325.986375pt" version="1.1" viewBox="0 0 420.82625 325.986375" width="420.82625pt" xmlns="http://www.w3.org/2000/svg" xmlns:xlink="http://www.w3.org/1999/xlink">
 <metadata>
  <rdf:RDF xmlns:cc="http://creativecommons.org/ns#" xmlns:dc="http://purl.org/dc/elements/1.1/" xmlns:rdf="http://www.w3.org/1999/02/22-rdf-syntax-ns#">
   <cc:Work>
    <dc:type rdf:resource="http://purl.org/dc/dcmitype/StillImage"/>
    <dc:date>2022-05-14T16:40:32.662402</dc:date>
    <dc:format>image/svg+xml</dc:format>
    <dc:creator>
     <cc:Agent>
      <dc:title>Matplotlib v3.4.3, https://matplotlib.org/</dc:title>
     </cc:Agent>
    </dc:creator>
   </cc:Work>
  </rdf:RDF>
 </metadata>
 <defs>
  <style type="text/css">*{stroke-linecap:butt;stroke-linejoin:round;}</style>
 </defs>
 <g id="figure_1">
  <g id="patch_1">
   <path d="M 0 325.986375 
L 420.82625 325.986375 
L 420.82625 0 
L 0 0 
z
" style="fill:#ffffff;"/>
  </g>
  <g id="axes_1">
   <g id="patch_2">
    <path d="M 56.50625 288.430125 
L 413.62625 288.430125 
L 413.62625 22.318125 
L 56.50625 22.318125 
z
" style="fill:#ffffff;"/>
   </g>
   <g id="matplotlib.axis_1">
    <g id="xtick_1">
     <g id="line2d_1">
      <path clip-path="url(#p7148342b80)" d="M 68.457439 288.430125 
L 68.457439 22.318125 
" style="fill:none;stroke:#b0b0b0;stroke-linecap:square;stroke-width:0.8;"/>
     </g>
     <g id="line2d_2">
      <defs>
       <path d="M 0 0 
L 0 3.5 
" id="m99a009fe2e" style="stroke:#000000;stroke-width:0.8;"/>
      </defs>
      <g>
       <use style="stroke:#000000;stroke-width:0.8;" x="68.457439" xlink:href="#m99a009fe2e" y="288.430125"/>
      </g>
     </g>
     <g id="text_1">
      <!-- 2.65 -->
      <g transform="translate(57.324627 303.028562)scale(0.1 -0.1)">
       <defs>
        <path d="M 1228 531 
L 3431 531 
L 3431 0 
L 469 0 
L 469 531 
Q 828 903 1448 1529 
Q 2069 2156 2228 2338 
Q 2531 2678 2651 2914 
Q 2772 3150 2772 3378 
Q 2772 3750 2511 3984 
Q 2250 4219 1831 4219 
Q 1534 4219 1204 4116 
Q 875 4013 500 3803 
L 500 4441 
Q 881 4594 1212 4672 
Q 1544 4750 1819 4750 
Q 2544 4750 2975 4387 
Q 3406 4025 3406 3419 
Q 3406 3131 3298 2873 
Q 3191 2616 2906 2266 
Q 2828 2175 2409 1742 
Q 1991 1309 1228 531 
z
" id="DejaVuSans-32" transform="scale(0.015625)"/>
        <path d="M 684 794 
L 1344 794 
L 1344 0 
L 684 0 
L 684 794 
z
" id="DejaVuSans-2e" transform="scale(0.015625)"/>
        <path d="M 2113 2584 
Q 1688 2584 1439 2293 
Q 1191 2003 1191 1497 
Q 1191 994 1439 701 
Q 1688 409 2113 409 
Q 2538 409 2786 701 
Q 3034 994 3034 1497 
Q 3034 2003 2786 2293 
Q 2538 2584 2113 2584 
z
M 3366 4563 
L 3366 3988 
Q 3128 4100 2886 4159 
Q 2644 4219 2406 4219 
Q 1781 4219 1451 3797 
Q 1122 3375 1075 2522 
Q 1259 2794 1537 2939 
Q 1816 3084 2150 3084 
Q 2853 3084 3261 2657 
Q 3669 2231 3669 1497 
Q 3669 778 3244 343 
Q 2819 -91 2113 -91 
Q 1303 -91 875 529 
Q 447 1150 447 2328 
Q 447 3434 972 4092 
Q 1497 4750 2381 4750 
Q 2619 4750 2861 4703 
Q 3103 4656 3366 4563 
z
" id="DejaVuSans-36" transform="scale(0.015625)"/>
        <path d="M 691 4666 
L 3169 4666 
L 3169 4134 
L 1269 4134 
L 1269 2991 
Q 1406 3038 1543 3061 
Q 1681 3084 1819 3084 
Q 2600 3084 3056 2656 
Q 3513 2228 3513 1497 
Q 3513 744 3044 326 
Q 2575 -91 1722 -91 
Q 1428 -91 1123 -41 
Q 819 9 494 109 
L 494 744 
Q 775 591 1075 516 
Q 1375 441 1709 441 
Q 2250 441 2565 725 
Q 2881 1009 2881 1497 
Q 2881 1984 2565 2268 
Q 2250 2553 1709 2553 
Q 1456 2553 1204 2497 
Q 953 2441 691 2322 
L 691 4666 
z
" id="DejaVuSans-35" transform="scale(0.015625)"/>
       </defs>
       <use xlink:href="#DejaVuSans-32"/>
       <use x="63.623047" xlink:href="#DejaVuSans-2e"/>
       <use x="95.410156" xlink:href="#DejaVuSans-36"/>
       <use x="159.033203" xlink:href="#DejaVuSans-35"/>
      </g>
     </g>
    </g>
    <g id="xtick_2">
     <g id="line2d_3">
      <path clip-path="url(#p7148342b80)" d="M 126.569451 288.430125 
L 126.569451 22.318125 
" style="fill:none;stroke:#b0b0b0;stroke-linecap:square;stroke-width:0.8;"/>
     </g>
     <g id="line2d_4">
      <g>
       <use style="stroke:#000000;stroke-width:0.8;" x="126.569451" xlink:href="#m99a009fe2e" y="288.430125"/>
      </g>
     </g>
     <g id="text_2">
      <!-- 2.70 -->
      <g transform="translate(115.436639 303.028562)scale(0.1 -0.1)">
       <defs>
        <path d="M 525 4666 
L 3525 4666 
L 3525 4397 
L 1831 0 
L 1172 0 
L 2766 4134 
L 525 4134 
L 525 4666 
z
" id="DejaVuSans-37" transform="scale(0.015625)"/>
        <path d="M 2034 4250 
Q 1547 4250 1301 3770 
Q 1056 3291 1056 2328 
Q 1056 1369 1301 889 
Q 1547 409 2034 409 
Q 2525 409 2770 889 
Q 3016 1369 3016 2328 
Q 3016 3291 2770 3770 
Q 2525 4250 2034 4250 
z
M 2034 4750 
Q 2819 4750 3233 4129 
Q 3647 3509 3647 2328 
Q 3647 1150 3233 529 
Q 2819 -91 2034 -91 
Q 1250 -91 836 529 
Q 422 1150 422 2328 
Q 422 3509 836 4129 
Q 1250 4750 2034 4750 
z
" id="DejaVuSans-30" transform="scale(0.015625)"/>
       </defs>
       <use xlink:href="#DejaVuSans-32"/>
       <use x="63.623047" xlink:href="#DejaVuSans-2e"/>
       <use x="95.410156" xlink:href="#DejaVuSans-37"/>
       <use x="159.033203" xlink:href="#DejaVuSans-30"/>
      </g>
     </g>
    </g>
    <g id="xtick_3">
     <g id="line2d_5">
      <path clip-path="url(#p7148342b80)" d="M 184.681463 288.430125 
L 184.681463 22.318125 
" style="fill:none;stroke:#b0b0b0;stroke-linecap:square;stroke-width:0.8;"/>
     </g>
     <g id="line2d_6">
      <g>
       <use style="stroke:#000000;stroke-width:0.8;" x="184.681463" xlink:href="#m99a009fe2e" y="288.430125"/>
      </g>
     </g>
     <g id="text_3">
      <!-- 2.75 -->
      <g transform="translate(173.548651 303.028562)scale(0.1 -0.1)">
       <use xlink:href="#DejaVuSans-32"/>
       <use x="63.623047" xlink:href="#DejaVuSans-2e"/>
       <use x="95.410156" xlink:href="#DejaVuSans-37"/>
       <use x="159.033203" xlink:href="#DejaVuSans-35"/>
      </g>
     </g>
    </g>
    <g id="xtick_4">
     <g id="line2d_7">
      <path clip-path="url(#p7148342b80)" d="M 242.793476 288.430125 
L 242.793476 22.318125 
" style="fill:none;stroke:#b0b0b0;stroke-linecap:square;stroke-width:0.8;"/>
     </g>
     <g id="line2d_8">
      <g>
       <use style="stroke:#000000;stroke-width:0.8;" x="242.793476" xlink:href="#m99a009fe2e" y="288.430125"/>
      </g>
     </g>
     <g id="text_4">
      <!-- 2.80 -->
      <g transform="translate(231.660663 303.028562)scale(0.1 -0.1)">
       <defs>
        <path d="M 2034 2216 
Q 1584 2216 1326 1975 
Q 1069 1734 1069 1313 
Q 1069 891 1326 650 
Q 1584 409 2034 409 
Q 2484 409 2743 651 
Q 3003 894 3003 1313 
Q 3003 1734 2745 1975 
Q 2488 2216 2034 2216 
z
M 1403 2484 
Q 997 2584 770 2862 
Q 544 3141 544 3541 
Q 544 4100 942 4425 
Q 1341 4750 2034 4750 
Q 2731 4750 3128 4425 
Q 3525 4100 3525 3541 
Q 3525 3141 3298 2862 
Q 3072 2584 2669 2484 
Q 3125 2378 3379 2068 
Q 3634 1759 3634 1313 
Q 3634 634 3220 271 
Q 2806 -91 2034 -91 
Q 1263 -91 848 271 
Q 434 634 434 1313 
Q 434 1759 690 2068 
Q 947 2378 1403 2484 
z
M 1172 3481 
Q 1172 3119 1398 2916 
Q 1625 2713 2034 2713 
Q 2441 2713 2670 2916 
Q 2900 3119 2900 3481 
Q 2900 3844 2670 4047 
Q 2441 4250 2034 4250 
Q 1625 4250 1398 4047 
Q 1172 3844 1172 3481 
z
" id="DejaVuSans-38" transform="scale(0.015625)"/>
       </defs>
       <use xlink:href="#DejaVuSans-32"/>
       <use x="63.623047" xlink:href="#DejaVuSans-2e"/>
       <use x="95.410156" xlink:href="#DejaVuSans-38"/>
       <use x="159.033203" xlink:href="#DejaVuSans-30"/>
      </g>
     </g>
    </g>
    <g id="xtick_5">
     <g id="line2d_9">
      <path clip-path="url(#p7148342b80)" d="M 300.905488 288.430125 
L 300.905488 22.318125 
" style="fill:none;stroke:#b0b0b0;stroke-linecap:square;stroke-width:0.8;"/>
     </g>
     <g id="line2d_10">
      <g>
       <use style="stroke:#000000;stroke-width:0.8;" x="300.905488" xlink:href="#m99a009fe2e" y="288.430125"/>
      </g>
     </g>
     <g id="text_5">
      <!-- 2.85 -->
      <g transform="translate(289.772675 303.028562)scale(0.1 -0.1)">
       <use xlink:href="#DejaVuSans-32"/>
       <use x="63.623047" xlink:href="#DejaVuSans-2e"/>
       <use x="95.410156" xlink:href="#DejaVuSans-38"/>
       <use x="159.033203" xlink:href="#DejaVuSans-35"/>
      </g>
     </g>
    </g>
    <g id="xtick_6">
     <g id="line2d_11">
      <path clip-path="url(#p7148342b80)" d="M 359.0175 288.430125 
L 359.0175 22.318125 
" style="fill:none;stroke:#b0b0b0;stroke-linecap:square;stroke-width:0.8;"/>
     </g>
     <g id="line2d_12">
      <g>
       <use style="stroke:#000000;stroke-width:0.8;" x="359.0175" xlink:href="#m99a009fe2e" y="288.430125"/>
      </g>
     </g>
     <g id="text_6">
      <!-- 2.90 -->
      <g transform="translate(347.884687 303.028562)scale(0.1 -0.1)">
       <defs>
        <path d="M 703 97 
L 703 672 
Q 941 559 1184 500 
Q 1428 441 1663 441 
Q 2288 441 2617 861 
Q 2947 1281 2994 2138 
Q 2813 1869 2534 1725 
Q 2256 1581 1919 1581 
Q 1219 1581 811 2004 
Q 403 2428 403 3163 
Q 403 3881 828 4315 
Q 1253 4750 1959 4750 
Q 2769 4750 3195 4129 
Q 3622 3509 3622 2328 
Q 3622 1225 3098 567 
Q 2575 -91 1691 -91 
Q 1453 -91 1209 -44 
Q 966 3 703 97 
z
M 1959 2075 
Q 2384 2075 2632 2365 
Q 2881 2656 2881 3163 
Q 2881 3666 2632 3958 
Q 2384 4250 1959 4250 
Q 1534 4250 1286 3958 
Q 1038 3666 1038 3163 
Q 1038 2656 1286 2365 
Q 1534 2075 1959 2075 
z
" id="DejaVuSans-39" transform="scale(0.015625)"/>
       </defs>
       <use xlink:href="#DejaVuSans-32"/>
       <use x="63.623047" xlink:href="#DejaVuSans-2e"/>
       <use x="95.410156" xlink:href="#DejaVuSans-39"/>
       <use x="159.033203" xlink:href="#DejaVuSans-30"/>
      </g>
     </g>
    </g>
    <g id="text_7">
     <!-- F1 -->
     <g transform="translate(229.009219 316.706687)scale(0.1 -0.1)">
      <defs>
       <path d="M 628 4666 
L 3309 4666 
L 3309 4134 
L 1259 4134 
L 1259 2759 
L 3109 2759 
L 3109 2228 
L 1259 2228 
L 1259 0 
L 628 0 
L 628 4666 
z
" id="DejaVuSans-46" transform="scale(0.015625)"/>
       <path d="M 794 531 
L 1825 531 
L 1825 4091 
L 703 3866 
L 703 4441 
L 1819 4666 
L 2450 4666 
L 2450 531 
L 3481 531 
L 3481 0 
L 794 0 
L 794 531 
z
" id="DejaVuSans-31" transform="scale(0.015625)"/>
      </defs>
      <use xlink:href="#DejaVuSans-46"/>
      <use x="57.519531" xlink:href="#DejaVuSans-31"/>
     </g>
    </g>
    <g id="text_8">
     <!-- 1e9 -->
     <g transform="translate(394.748125 315.706687)scale(0.1 -0.1)">
      <defs>
       <path d="M 3597 1894 
L 3597 1613 
L 953 1613 
Q 991 1019 1311 708 
Q 1631 397 2203 397 
Q 2534 397 2845 478 
Q 3156 559 3463 722 
L 3463 178 
Q 3153 47 2828 -22 
Q 2503 -91 2169 -91 
Q 1331 -91 842 396 
Q 353 884 353 1716 
Q 353 2575 817 3079 
Q 1281 3584 2069 3584 
Q 2775 3584 3186 3129 
Q 3597 2675 3597 1894 
z
M 3022 2063 
Q 3016 2534 2758 2815 
Q 2500 3097 2075 3097 
Q 1594 3097 1305 2825 
Q 1016 2553 972 2059 
L 3022 2063 
z
" id="DejaVuSans-65" transform="scale(0.015625)"/>
      </defs>
      <use xlink:href="#DejaVuSans-31"/>
      <use x="63.623047" xlink:href="#DejaVuSans-65"/>
      <use x="125.146484" xlink:href="#DejaVuSans-39"/>
     </g>
    </g>
   </g>
   <g id="matplotlib.axis_2">
    <g id="ytick_1">
     <g id="line2d_13">
      <path clip-path="url(#p7148342b80)" d="M 56.50625 273.204262 
L 413.62625 273.204262 
" style="fill:none;stroke:#b0b0b0;stroke-linecap:square;stroke-width:0.8;"/>
     </g>
     <g id="line2d_14">
      <defs>
       <path d="M 0 0 
L -3.5 0 
" id="m2b5f4d9938" style="stroke:#000000;stroke-width:0.8;"/>
      </defs>
      <g>
       <use style="stroke:#000000;stroke-width:0.8;" x="56.50625" xlink:href="#m2b5f4d9938" y="273.204262"/>
      </g>
     </g>
     <g id="text_9">
      <!-- 1.900 -->
      <g transform="translate(20.878125 277.003481)scale(0.1 -0.1)">
       <use xlink:href="#DejaVuSans-31"/>
       <use x="63.623047" xlink:href="#DejaVuSans-2e"/>
       <use x="95.410156" xlink:href="#DejaVuSans-39"/>
       <use x="159.033203" xlink:href="#DejaVuSans-30"/>
       <use x="222.65625" xlink:href="#DejaVuSans-30"/>
      </g>
     </g>
    </g>
    <g id="ytick_2">
     <g id="line2d_15">
      <path clip-path="url(#p7148342b80)" d="M 56.50625 242.92308 
L 413.62625 242.92308 
" style="fill:none;stroke:#b0b0b0;stroke-linecap:square;stroke-width:0.8;"/>
     </g>
     <g id="line2d_16">
      <g>
       <use style="stroke:#000000;stroke-width:0.8;" x="56.50625" xlink:href="#m2b5f4d9938" y="242.92308"/>
      </g>
     </g>
     <g id="text_10">
      <!-- 1.925 -->
      <g transform="translate(20.878125 246.722298)scale(0.1 -0.1)">
       <use xlink:href="#DejaVuSans-31"/>
       <use x="63.623047" xlink:href="#DejaVuSans-2e"/>
       <use x="95.410156" xlink:href="#DejaVuSans-39"/>
       <use x="159.033203" xlink:href="#DejaVuSans-32"/>
       <use x="222.65625" xlink:href="#DejaVuSans-35"/>
      </g>
     </g>
    </g>
    <g id="ytick_3">
     <g id="line2d_17">
      <path clip-path="url(#p7148342b80)" d="M 56.50625 212.641897 
L 413.62625 212.641897 
" style="fill:none;stroke:#b0b0b0;stroke-linecap:square;stroke-width:0.8;"/>
     </g>
     <g id="line2d_18">
      <g>
       <use style="stroke:#000000;stroke-width:0.8;" x="56.50625" xlink:href="#m2b5f4d9938" y="212.641897"/>
      </g>
     </g>
     <g id="text_11">
      <!-- 1.950 -->
      <g transform="translate(20.878125 216.441116)scale(0.1 -0.1)">
       <use xlink:href="#DejaVuSans-31"/>
       <use x="63.623047" xlink:href="#DejaVuSans-2e"/>
       <use x="95.410156" xlink:href="#DejaVuSans-39"/>
       <use x="159.033203" xlink:href="#DejaVuSans-35"/>
       <use x="222.65625" xlink:href="#DejaVuSans-30"/>
      </g>
     </g>
    </g>
    <g id="ytick_4">
     <g id="line2d_19">
      <path clip-path="url(#p7148342b80)" d="M 56.50625 182.360715 
L 413.62625 182.360715 
" style="fill:none;stroke:#b0b0b0;stroke-linecap:square;stroke-width:0.8;"/>
     </g>
     <g id="line2d_20">
      <g>
       <use style="stroke:#000000;stroke-width:0.8;" x="56.50625" xlink:href="#m2b5f4d9938" y="182.360715"/>
      </g>
     </g>
     <g id="text_12">
      <!-- 1.975 -->
      <g transform="translate(20.878125 186.159934)scale(0.1 -0.1)">
       <use xlink:href="#DejaVuSans-31"/>
       <use x="63.623047" xlink:href="#DejaVuSans-2e"/>
       <use x="95.410156" xlink:href="#DejaVuSans-39"/>
       <use x="159.033203" xlink:href="#DejaVuSans-37"/>
       <use x="222.65625" xlink:href="#DejaVuSans-35"/>
      </g>
     </g>
    </g>
    <g id="ytick_5">
     <g id="line2d_21">
      <path clip-path="url(#p7148342b80)" d="M 56.50625 152.079532 
L 413.62625 152.079532 
" style="fill:none;stroke:#b0b0b0;stroke-linecap:square;stroke-width:0.8;"/>
     </g>
     <g id="line2d_22">
      <g>
       <use style="stroke:#000000;stroke-width:0.8;" x="56.50625" xlink:href="#m2b5f4d9938" y="152.079532"/>
      </g>
     </g>
     <g id="text_13">
      <!-- 2.000 -->
      <g transform="translate(20.878125 155.878751)scale(0.1 -0.1)">
       <use xlink:href="#DejaVuSans-32"/>
       <use x="63.623047" xlink:href="#DejaVuSans-2e"/>
       <use x="95.410156" xlink:href="#DejaVuSans-30"/>
       <use x="159.033203" xlink:href="#DejaVuSans-30"/>
       <use x="222.65625" xlink:href="#DejaVuSans-30"/>
      </g>
     </g>
    </g>
    <g id="ytick_6">
     <g id="line2d_23">
      <path clip-path="url(#p7148342b80)" d="M 56.50625 121.79835 
L 413.62625 121.79835 
" style="fill:none;stroke:#b0b0b0;stroke-linecap:square;stroke-width:0.8;"/>
     </g>
     <g id="line2d_24">
      <g>
       <use style="stroke:#000000;stroke-width:0.8;" x="56.50625" xlink:href="#m2b5f4d9938" y="121.79835"/>
      </g>
     </g>
     <g id="text_14">
      <!-- 2.025 -->
      <g transform="translate(20.878125 125.597569)scale(0.1 -0.1)">
       <use xlink:href="#DejaVuSans-32"/>
       <use x="63.623047" xlink:href="#DejaVuSans-2e"/>
       <use x="95.410156" xlink:href="#DejaVuSans-30"/>
       <use x="159.033203" xlink:href="#DejaVuSans-32"/>
       <use x="222.65625" xlink:href="#DejaVuSans-35"/>
      </g>
     </g>
    </g>
    <g id="ytick_7">
     <g id="line2d_25">
      <path clip-path="url(#p7148342b80)" d="M 56.50625 91.517168 
L 413.62625 91.517168 
" style="fill:none;stroke:#b0b0b0;stroke-linecap:square;stroke-width:0.8;"/>
     </g>
     <g id="line2d_26">
      <g>
       <use style="stroke:#000000;stroke-width:0.8;" x="56.50625" xlink:href="#m2b5f4d9938" y="91.517168"/>
      </g>
     </g>
     <g id="text_15">
      <!-- 2.050 -->
      <g transform="translate(20.878125 95.316386)scale(0.1 -0.1)">
       <use xlink:href="#DejaVuSans-32"/>
       <use x="63.623047" xlink:href="#DejaVuSans-2e"/>
       <use x="95.410156" xlink:href="#DejaVuSans-30"/>
       <use x="159.033203" xlink:href="#DejaVuSans-35"/>
       <use x="222.65625" xlink:href="#DejaVuSans-30"/>
      </g>
     </g>
    </g>
    <g id="ytick_8">
     <g id="line2d_27">
      <path clip-path="url(#p7148342b80)" d="M 56.50625 61.235985 
L 413.62625 61.235985 
" style="fill:none;stroke:#b0b0b0;stroke-linecap:square;stroke-width:0.8;"/>
     </g>
     <g id="line2d_28">
      <g>
       <use style="stroke:#000000;stroke-width:0.8;" x="56.50625" xlink:href="#m2b5f4d9938" y="61.235985"/>
      </g>
     </g>
     <g id="text_16">
      <!-- 2.075 -->
      <g transform="translate(20.878125 65.035204)scale(0.1 -0.1)">
       <use xlink:href="#DejaVuSans-32"/>
       <use x="63.623047" xlink:href="#DejaVuSans-2e"/>
       <use x="95.410156" xlink:href="#DejaVuSans-30"/>
       <use x="159.033203" xlink:href="#DejaVuSans-37"/>
       <use x="222.65625" xlink:href="#DejaVuSans-35"/>
      </g>
     </g>
    </g>
    <g id="ytick_9">
     <g id="line2d_29">
      <path clip-path="url(#p7148342b80)" d="M 56.50625 30.954803 
L 413.62625 30.954803 
" style="fill:none;stroke:#b0b0b0;stroke-linecap:square;stroke-width:0.8;"/>
     </g>
     <g id="line2d_30">
      <g>
       <use style="stroke:#000000;stroke-width:0.8;" x="56.50625" xlink:href="#m2b5f4d9938" y="30.954803"/>
      </g>
     </g>
     <g id="text_17">
      <!-- 2.100 -->
      <g transform="translate(20.878125 34.754021)scale(0.1 -0.1)">
       <use xlink:href="#DejaVuSans-32"/>
       <use x="63.623047" xlink:href="#DejaVuSans-2e"/>
       <use x="95.410156" xlink:href="#DejaVuSans-31"/>
       <use x="159.033203" xlink:href="#DejaVuSans-30"/>
       <use x="222.65625" xlink:href="#DejaVuSans-30"/>
      </g>
     </g>
    </g>
    <g id="text_18">
     <!-- F2 -->
     <g transform="translate(14.798438 161.431156)rotate(-90)scale(0.1 -0.1)">
      <use xlink:href="#DejaVuSans-46"/>
      <use x="57.519531" xlink:href="#DejaVuSans-32"/>
     </g>
    </g>
    <g id="text_19">
     <!-- 1e7 -->
     <g transform="translate(56.50625 19.318125)scale(0.1 -0.1)">
      <use xlink:href="#DejaVuSans-31"/>
      <use x="63.623047" xlink:href="#DejaVuSans-65"/>
      <use x="125.146484" xlink:href="#DejaVuSans-37"/>
     </g>
    </g>
   </g>
   <g id="line2d_31">
    <defs>
     <path d="M 0 2.5 
C 0.663008 2.5 1.29895 2.236584 1.767767 1.767767 
C 2.236584 1.29895 2.5 0.663008 2.5 0 
C 2.5 -0.663008 2.236584 -1.29895 1.767767 -1.767767 
C 1.29895 -2.236584 0.663008 -2.5 0 -2.5 
C -0.663008 -2.5 -1.29895 -2.236584 -1.767767 -1.767767 
C -2.236584 -1.29895 -2.5 -0.663008 -2.5 0 
C -2.5 0.663008 -2.236584 1.29895 -1.767767 1.767767 
C -1.29895 2.236584 -0.663008 2.5 0 2.5 
z
" id="m8183ae37e5" style="stroke:#ff0000;"/>
    </defs>
    <g clip-path="url(#p7148342b80)">
     <use style="fill:#ff0000;stroke:#ff0000;" x="235.06625" xlink:href="#m8183ae37e5" y="155.374125"/>
     <use style="fill:#ff0000;stroke:#ff0000;" x="235.06625" xlink:href="#m8183ae37e5" y="155.374125"/>
     <use style="fill:#ff0000;stroke:#ff0000;" x="235.06625" xlink:href="#m8183ae37e5" y="155.374125"/>
     <use style="fill:#ff0000;stroke:#ff0000;" x="235.06625" xlink:href="#m8183ae37e5" y="155.374125"/>
     <use style="fill:#ff0000;stroke:#ff0000;" x="235.06625" xlink:href="#m8183ae37e5" y="155.374125"/>
     <use style="fill:#ff0000;stroke:#ff0000;" x="235.06625" xlink:href="#m8183ae37e5" y="155.374125"/>
     <use style="fill:#ff0000;stroke:#ff0000;" x="235.06625" xlink:href="#m8183ae37e5" y="155.374125"/>
     <use style="fill:#ff0000;stroke:#ff0000;" x="235.06625" xlink:href="#m8183ae37e5" y="155.374125"/>
     <use style="fill:#ff0000;stroke:#ff0000;" x="235.06625" xlink:href="#m8183ae37e5" y="155.374125"/>
     <use style="fill:#ff0000;stroke:#ff0000;" x="235.06625" xlink:href="#m8183ae37e5" y="155.374125"/>
     <use style="fill:#ff0000;stroke:#ff0000;" x="235.06625" xlink:href="#m8183ae37e5" y="155.374125"/>
     <use style="fill:#ff0000;stroke:#ff0000;" x="235.06625" xlink:href="#m8183ae37e5" y="155.374125"/>
     <use style="fill:#ff0000;stroke:#ff0000;" x="235.06625" xlink:href="#m8183ae37e5" y="155.374125"/>
     <use style="fill:#ff0000;stroke:#ff0000;" x="235.06625" xlink:href="#m8183ae37e5" y="155.374125"/>
     <use style="fill:#ff0000;stroke:#ff0000;" x="235.06625" xlink:href="#m8183ae37e5" y="155.374125"/>
     <use style="fill:#ff0000;stroke:#ff0000;" x="235.06625" xlink:href="#m8183ae37e5" y="155.374125"/>
     <use style="fill:#ff0000;stroke:#ff0000;" x="235.06625" xlink:href="#m8183ae37e5" y="155.374125"/>
     <use style="fill:#ff0000;stroke:#ff0000;" x="235.06625" xlink:href="#m8183ae37e5" y="155.374125"/>
     <use style="fill:#ff0000;stroke:#ff0000;" x="235.06625" xlink:href="#m8183ae37e5" y="155.374125"/>
     <use style="fill:#ff0000;stroke:#ff0000;" x="235.06625" xlink:href="#m8183ae37e5" y="155.374125"/>
     <use style="fill:#ff0000;stroke:#ff0000;" x="235.06625" xlink:href="#m8183ae37e5" y="155.374125"/>
     <use style="fill:#ff0000;stroke:#ff0000;" x="235.06625" xlink:href="#m8183ae37e5" y="155.374125"/>
     <use style="fill:#ff0000;stroke:#ff0000;" x="235.06625" xlink:href="#m8183ae37e5" y="155.374125"/>
     <use style="fill:#ff0000;stroke:#ff0000;" x="235.06625" xlink:href="#m8183ae37e5" y="155.374125"/>
     <use style="fill:#ff0000;stroke:#ff0000;" x="235.06625" xlink:href="#m8183ae37e5" y="155.374125"/>
     <use style="fill:#ff0000;stroke:#ff0000;" x="235.06625" xlink:href="#m8183ae37e5" y="155.374125"/>
     <use style="fill:#ff0000;stroke:#ff0000;" x="235.06625" xlink:href="#m8183ae37e5" y="155.374125"/>
     <use style="fill:#ff0000;stroke:#ff0000;" x="235.06625" xlink:href="#m8183ae37e5" y="155.374125"/>
     <use style="fill:#ff0000;stroke:#ff0000;" x="235.06625" xlink:href="#m8183ae37e5" y="155.374125"/>
     <use style="fill:#ff0000;stroke:#ff0000;" x="235.06625" xlink:href="#m8183ae37e5" y="155.374125"/>
     <use style="fill:#ff0000;stroke:#ff0000;" x="235.06625" xlink:href="#m8183ae37e5" y="155.374125"/>
     <use style="fill:#ff0000;stroke:#ff0000;" x="235.06625" xlink:href="#m8183ae37e5" y="155.374125"/>
     <use style="fill:#ff0000;stroke:#ff0000;" x="235.06625" xlink:href="#m8183ae37e5" y="155.374125"/>
     <use style="fill:#ff0000;stroke:#ff0000;" x="235.06625" xlink:href="#m8183ae37e5" y="155.374125"/>
     <use style="fill:#ff0000;stroke:#ff0000;" x="235.06625" xlink:href="#m8183ae37e5" y="155.374125"/>
     <use style="fill:#ff0000;stroke:#ff0000;" x="235.06625" xlink:href="#m8183ae37e5" y="155.374125"/>
     <use style="fill:#ff0000;stroke:#ff0000;" x="235.06625" xlink:href="#m8183ae37e5" y="155.374125"/>
     <use style="fill:#ff0000;stroke:#ff0000;" x="235.06625" xlink:href="#m8183ae37e5" y="155.374125"/>
     <use style="fill:#ff0000;stroke:#ff0000;" x="235.06625" xlink:href="#m8183ae37e5" y="155.374125"/>
     <use style="fill:#ff0000;stroke:#ff0000;" x="235.06625" xlink:href="#m8183ae37e5" y="155.374125"/>
     <use style="fill:#ff0000;stroke:#ff0000;" x="235.06625" xlink:href="#m8183ae37e5" y="155.374125"/>
     <use style="fill:#ff0000;stroke:#ff0000;" x="235.06625" xlink:href="#m8183ae37e5" y="155.374125"/>
     <use style="fill:#ff0000;stroke:#ff0000;" x="235.06625" xlink:href="#m8183ae37e5" y="155.374125"/>
     <use style="fill:#ff0000;stroke:#ff0000;" x="235.06625" xlink:href="#m8183ae37e5" y="155.374125"/>
     <use style="fill:#ff0000;stroke:#ff0000;" x="235.06625" xlink:href="#m8183ae37e5" y="155.374125"/>
     <use style="fill:#ff0000;stroke:#ff0000;" x="235.06625" xlink:href="#m8183ae37e5" y="155.374125"/>
     <use style="fill:#ff0000;stroke:#ff0000;" x="235.06625" xlink:href="#m8183ae37e5" y="155.374125"/>
     <use style="fill:#ff0000;stroke:#ff0000;" x="235.06625" xlink:href="#m8183ae37e5" y="155.374125"/>
     <use style="fill:#ff0000;stroke:#ff0000;" x="235.06625" xlink:href="#m8183ae37e5" y="155.374125"/>
     <use style="fill:#ff0000;stroke:#ff0000;" x="235.06625" xlink:href="#m8183ae37e5" y="155.374125"/>
     <use style="fill:#ff0000;stroke:#ff0000;" x="235.06625" xlink:href="#m8183ae37e5" y="155.374125"/>
     <use style="fill:#ff0000;stroke:#ff0000;" x="235.06625" xlink:href="#m8183ae37e5" y="155.374125"/>
     <use style="fill:#ff0000;stroke:#ff0000;" x="235.06625" xlink:href="#m8183ae37e5" y="155.374125"/>
     <use style="fill:#ff0000;stroke:#ff0000;" x="235.06625" xlink:href="#m8183ae37e5" y="155.374125"/>
     <use style="fill:#ff0000;stroke:#ff0000;" x="235.06625" xlink:href="#m8183ae37e5" y="155.374125"/>
     <use style="fill:#ff0000;stroke:#ff0000;" x="235.06625" xlink:href="#m8183ae37e5" y="155.374125"/>
     <use style="fill:#ff0000;stroke:#ff0000;" x="235.06625" xlink:href="#m8183ae37e5" y="155.374125"/>
     <use style="fill:#ff0000;stroke:#ff0000;" x="235.06625" xlink:href="#m8183ae37e5" y="155.374125"/>
     <use style="fill:#ff0000;stroke:#ff0000;" x="235.06625" xlink:href="#m8183ae37e5" y="155.374125"/>
     <use style="fill:#ff0000;stroke:#ff0000;" x="235.06625" xlink:href="#m8183ae37e5" y="155.374125"/>
     <use style="fill:#ff0000;stroke:#ff0000;" x="235.06625" xlink:href="#m8183ae37e5" y="155.374125"/>
     <use style="fill:#ff0000;stroke:#ff0000;" x="235.06625" xlink:href="#m8183ae37e5" y="155.374125"/>
     <use style="fill:#ff0000;stroke:#ff0000;" x="235.06625" xlink:href="#m8183ae37e5" y="155.374125"/>
     <use style="fill:#ff0000;stroke:#ff0000;" x="235.06625" xlink:href="#m8183ae37e5" y="155.374125"/>
     <use style="fill:#ff0000;stroke:#ff0000;" x="235.06625" xlink:href="#m8183ae37e5" y="155.374125"/>
     <use style="fill:#ff0000;stroke:#ff0000;" x="235.06625" xlink:href="#m8183ae37e5" y="155.374125"/>
     <use style="fill:#ff0000;stroke:#ff0000;" x="235.06625" xlink:href="#m8183ae37e5" y="155.374125"/>
     <use style="fill:#ff0000;stroke:#ff0000;" x="235.06625" xlink:href="#m8183ae37e5" y="155.374125"/>
     <use style="fill:#ff0000;stroke:#ff0000;" x="235.06625" xlink:href="#m8183ae37e5" y="155.374125"/>
     <use style="fill:#ff0000;stroke:#ff0000;" x="235.06625" xlink:href="#m8183ae37e5" y="155.374125"/>
     <use style="fill:#ff0000;stroke:#ff0000;" x="235.06625" xlink:href="#m8183ae37e5" y="155.374125"/>
     <use style="fill:#ff0000;stroke:#ff0000;" x="235.06625" xlink:href="#m8183ae37e5" y="155.374125"/>
     <use style="fill:#ff0000;stroke:#ff0000;" x="235.06625" xlink:href="#m8183ae37e5" y="155.374125"/>
     <use style="fill:#ff0000;stroke:#ff0000;" x="235.06625" xlink:href="#m8183ae37e5" y="155.374125"/>
     <use style="fill:#ff0000;stroke:#ff0000;" x="235.06625" xlink:href="#m8183ae37e5" y="155.374125"/>
     <use style="fill:#ff0000;stroke:#ff0000;" x="235.06625" xlink:href="#m8183ae37e5" y="155.374125"/>
     <use style="fill:#ff0000;stroke:#ff0000;" x="235.06625" xlink:href="#m8183ae37e5" y="155.374125"/>
     <use style="fill:#ff0000;stroke:#ff0000;" x="235.06625" xlink:href="#m8183ae37e5" y="155.374125"/>
     <use style="fill:#ff0000;stroke:#ff0000;" x="235.06625" xlink:href="#m8183ae37e5" y="155.374125"/>
     <use style="fill:#ff0000;stroke:#ff0000;" x="235.06625" xlink:href="#m8183ae37e5" y="155.374125"/>
     <use style="fill:#ff0000;stroke:#ff0000;" x="235.06625" xlink:href="#m8183ae37e5" y="155.374125"/>
     <use style="fill:#ff0000;stroke:#ff0000;" x="235.06625" xlink:href="#m8183ae37e5" y="155.374125"/>
     <use style="fill:#ff0000;stroke:#ff0000;" x="235.06625" xlink:href="#m8183ae37e5" y="155.374125"/>
     <use style="fill:#ff0000;stroke:#ff0000;" x="235.06625" xlink:href="#m8183ae37e5" y="155.374125"/>
     <use style="fill:#ff0000;stroke:#ff0000;" x="235.06625" xlink:href="#m8183ae37e5" y="155.374125"/>
     <use style="fill:#ff0000;stroke:#ff0000;" x="235.06625" xlink:href="#m8183ae37e5" y="155.374125"/>
     <use style="fill:#ff0000;stroke:#ff0000;" x="235.06625" xlink:href="#m8183ae37e5" y="155.374125"/>
     <use style="fill:#ff0000;stroke:#ff0000;" x="235.06625" xlink:href="#m8183ae37e5" y="155.374125"/>
     <use style="fill:#ff0000;stroke:#ff0000;" x="235.06625" xlink:href="#m8183ae37e5" y="155.374125"/>
     <use style="fill:#ff0000;stroke:#ff0000;" x="235.06625" xlink:href="#m8183ae37e5" y="155.374125"/>
     <use style="fill:#ff0000;stroke:#ff0000;" x="235.06625" xlink:href="#m8183ae37e5" y="155.374125"/>
     <use style="fill:#ff0000;stroke:#ff0000;" x="235.06625" xlink:href="#m8183ae37e5" y="155.374125"/>
     <use style="fill:#ff0000;stroke:#ff0000;" x="235.06625" xlink:href="#m8183ae37e5" y="155.374125"/>
     <use style="fill:#ff0000;stroke:#ff0000;" x="235.06625" xlink:href="#m8183ae37e5" y="155.374125"/>
     <use style="fill:#ff0000;stroke:#ff0000;" x="235.06625" xlink:href="#m8183ae37e5" y="155.374125"/>
     <use style="fill:#ff0000;stroke:#ff0000;" x="235.06625" xlink:href="#m8183ae37e5" y="155.374125"/>
     <use style="fill:#ff0000;stroke:#ff0000;" x="235.06625" xlink:href="#m8183ae37e5" y="155.374125"/>
     <use style="fill:#ff0000;stroke:#ff0000;" x="235.06625" xlink:href="#m8183ae37e5" y="155.374125"/>
     <use style="fill:#ff0000;stroke:#ff0000;" x="235.06625" xlink:href="#m8183ae37e5" y="155.374125"/>
     <use style="fill:#ff0000;stroke:#ff0000;" x="235.06625" xlink:href="#m8183ae37e5" y="155.374125"/>
     <use style="fill:#ff0000;stroke:#ff0000;" x="235.06625" xlink:href="#m8183ae37e5" y="155.374125"/>
     <use style="fill:#ff0000;stroke:#ff0000;" x="235.06625" xlink:href="#m8183ae37e5" y="155.374125"/>
     <use style="fill:#ff0000;stroke:#ff0000;" x="235.06625" xlink:href="#m8183ae37e5" y="155.374125"/>
     <use style="fill:#ff0000;stroke:#ff0000;" x="235.06625" xlink:href="#m8183ae37e5" y="155.374125"/>
     <use style="fill:#ff0000;stroke:#ff0000;" x="235.06625" xlink:href="#m8183ae37e5" y="155.374125"/>
     <use style="fill:#ff0000;stroke:#ff0000;" x="235.06625" xlink:href="#m8183ae37e5" y="155.374125"/>
     <use style="fill:#ff0000;stroke:#ff0000;" x="235.06625" xlink:href="#m8183ae37e5" y="155.374125"/>
     <use style="fill:#ff0000;stroke:#ff0000;" x="235.06625" xlink:href="#m8183ae37e5" y="155.374125"/>
     <use style="fill:#ff0000;stroke:#ff0000;" x="235.06625" xlink:href="#m8183ae37e5" y="155.374125"/>
     <use style="fill:#ff0000;stroke:#ff0000;" x="235.06625" xlink:href="#m8183ae37e5" y="155.374125"/>
     <use style="fill:#ff0000;stroke:#ff0000;" x="235.06625" xlink:href="#m8183ae37e5" y="155.374125"/>
     <use style="fill:#ff0000;stroke:#ff0000;" x="235.06625" xlink:href="#m8183ae37e5" y="155.374125"/>
     <use style="fill:#ff0000;stroke:#ff0000;" x="235.06625" xlink:href="#m8183ae37e5" y="155.374125"/>
     <use style="fill:#ff0000;stroke:#ff0000;" x="235.06625" xlink:href="#m8183ae37e5" y="155.374125"/>
     <use style="fill:#ff0000;stroke:#ff0000;" x="235.06625" xlink:href="#m8183ae37e5" y="155.374125"/>
     <use style="fill:#ff0000;stroke:#ff0000;" x="235.06625" xlink:href="#m8183ae37e5" y="155.374125"/>
     <use style="fill:#ff0000;stroke:#ff0000;" x="235.06625" xlink:href="#m8183ae37e5" y="155.374125"/>
     <use style="fill:#ff0000;stroke:#ff0000;" x="235.06625" xlink:href="#m8183ae37e5" y="155.374125"/>
     <use style="fill:#ff0000;stroke:#ff0000;" x="235.06625" xlink:href="#m8183ae37e5" y="155.374125"/>
     <use style="fill:#ff0000;stroke:#ff0000;" x="235.06625" xlink:href="#m8183ae37e5" y="155.374125"/>
     <use style="fill:#ff0000;stroke:#ff0000;" x="235.06625" xlink:href="#m8183ae37e5" y="155.374125"/>
     <use style="fill:#ff0000;stroke:#ff0000;" x="235.06625" xlink:href="#m8183ae37e5" y="155.374125"/>
     <use style="fill:#ff0000;stroke:#ff0000;" x="235.06625" xlink:href="#m8183ae37e5" y="155.374125"/>
     <use style="fill:#ff0000;stroke:#ff0000;" x="235.06625" xlink:href="#m8183ae37e5" y="155.374125"/>
     <use style="fill:#ff0000;stroke:#ff0000;" x="235.06625" xlink:href="#m8183ae37e5" y="155.374125"/>
     <use style="fill:#ff0000;stroke:#ff0000;" x="235.06625" xlink:href="#m8183ae37e5" y="155.374125"/>
     <use style="fill:#ff0000;stroke:#ff0000;" x="235.06625" xlink:href="#m8183ae37e5" y="155.374125"/>
     <use style="fill:#ff0000;stroke:#ff0000;" x="235.06625" xlink:href="#m8183ae37e5" y="155.374125"/>
     <use style="fill:#ff0000;stroke:#ff0000;" x="235.06625" xlink:href="#m8183ae37e5" y="155.374125"/>
     <use style="fill:#ff0000;stroke:#ff0000;" x="235.06625" xlink:href="#m8183ae37e5" y="155.374125"/>
     <use style="fill:#ff0000;stroke:#ff0000;" x="235.06625" xlink:href="#m8183ae37e5" y="155.374125"/>
     <use style="fill:#ff0000;stroke:#ff0000;" x="235.06625" xlink:href="#m8183ae37e5" y="155.374125"/>
     <use style="fill:#ff0000;stroke:#ff0000;" x="235.06625" xlink:href="#m8183ae37e5" y="155.374125"/>
     <use style="fill:#ff0000;stroke:#ff0000;" x="235.06625" xlink:href="#m8183ae37e5" y="155.374125"/>
     <use style="fill:#ff0000;stroke:#ff0000;" x="235.06625" xlink:href="#m8183ae37e5" y="155.374125"/>
     <use style="fill:#ff0000;stroke:#ff0000;" x="235.06625" xlink:href="#m8183ae37e5" y="155.374125"/>
     <use style="fill:#ff0000;stroke:#ff0000;" x="235.06625" xlink:href="#m8183ae37e5" y="155.374125"/>
     <use style="fill:#ff0000;stroke:#ff0000;" x="235.06625" xlink:href="#m8183ae37e5" y="155.374125"/>
     <use style="fill:#ff0000;stroke:#ff0000;" x="235.06625" xlink:href="#m8183ae37e5" y="155.374125"/>
     <use style="fill:#ff0000;stroke:#ff0000;" x="235.06625" xlink:href="#m8183ae37e5" y="155.374125"/>
     <use style="fill:#ff0000;stroke:#ff0000;" x="235.06625" xlink:href="#m8183ae37e5" y="155.374125"/>
     <use style="fill:#ff0000;stroke:#ff0000;" x="235.06625" xlink:href="#m8183ae37e5" y="155.374125"/>
     <use style="fill:#ff0000;stroke:#ff0000;" x="235.06625" xlink:href="#m8183ae37e5" y="155.374125"/>
     <use style="fill:#ff0000;stroke:#ff0000;" x="235.06625" xlink:href="#m8183ae37e5" y="155.374125"/>
     <use style="fill:#ff0000;stroke:#ff0000;" x="235.06625" xlink:href="#m8183ae37e5" y="155.374125"/>
     <use style="fill:#ff0000;stroke:#ff0000;" x="235.06625" xlink:href="#m8183ae37e5" y="155.374125"/>
     <use style="fill:#ff0000;stroke:#ff0000;" x="235.06625" xlink:href="#m8183ae37e5" y="155.374125"/>
     <use style="fill:#ff0000;stroke:#ff0000;" x="235.06625" xlink:href="#m8183ae37e5" y="155.374125"/>
     <use style="fill:#ff0000;stroke:#ff0000;" x="235.06625" xlink:href="#m8183ae37e5" y="155.374125"/>
     <use style="fill:#ff0000;stroke:#ff0000;" x="235.06625" xlink:href="#m8183ae37e5" y="155.374125"/>
    </g>
   </g>
   <g id="patch_3">
    <path d="M 56.50625 288.430125 
L 56.50625 22.318125 
" style="fill:none;stroke:#000000;stroke-linecap:square;stroke-linejoin:miter;stroke-width:0.8;"/>
   </g>
   <g id="patch_4">
    <path d="M 413.62625 288.430125 
L 413.62625 22.318125 
" style="fill:none;stroke:#000000;stroke-linecap:square;stroke-linejoin:miter;stroke-width:0.8;"/>
   </g>
   <g id="patch_5">
    <path d="M 56.50625 288.430125 
L 413.62625 288.430125 
" style="fill:none;stroke:#000000;stroke-linecap:square;stroke-linejoin:miter;stroke-width:0.8;"/>
   </g>
   <g id="patch_6">
    <path d="M 56.50625 22.318125 
L 413.62625 22.318125 
" style="fill:none;stroke:#000000;stroke-linecap:square;stroke-linejoin:miter;stroke-width:0.8;"/>
   </g>
   <g id="text_20">
    <!-- Pareto Front Plot -->
    <g transform="translate(185.699375 16.318125)scale(0.12 -0.12)">
     <defs>
      <path d="M 1259 4147 
L 1259 2394 
L 2053 2394 
Q 2494 2394 2734 2622 
Q 2975 2850 2975 3272 
Q 2975 3691 2734 3919 
Q 2494 4147 2053 4147 
L 1259 4147 
z
M 628 4666 
L 2053 4666 
Q 2838 4666 3239 4311 
Q 3641 3956 3641 3272 
Q 3641 2581 3239 2228 
Q 2838 1875 2053 1875 
L 1259 1875 
L 1259 0 
L 628 0 
L 628 4666 
z
" id="DejaVuSans-50" transform="scale(0.015625)"/>
      <path d="M 2194 1759 
Q 1497 1759 1228 1600 
Q 959 1441 959 1056 
Q 959 750 1161 570 
Q 1363 391 1709 391 
Q 2188 391 2477 730 
Q 2766 1069 2766 1631 
L 2766 1759 
L 2194 1759 
z
M 3341 1997 
L 3341 0 
L 2766 0 
L 2766 531 
Q 2569 213 2275 61 
Q 1981 -91 1556 -91 
Q 1019 -91 701 211 
Q 384 513 384 1019 
Q 384 1609 779 1909 
Q 1175 2209 1959 2209 
L 2766 2209 
L 2766 2266 
Q 2766 2663 2505 2880 
Q 2244 3097 1772 3097 
Q 1472 3097 1187 3025 
Q 903 2953 641 2809 
L 641 3341 
Q 956 3463 1253 3523 
Q 1550 3584 1831 3584 
Q 2591 3584 2966 3190 
Q 3341 2797 3341 1997 
z
" id="DejaVuSans-61" transform="scale(0.015625)"/>
      <path d="M 2631 2963 
Q 2534 3019 2420 3045 
Q 2306 3072 2169 3072 
Q 1681 3072 1420 2755 
Q 1159 2438 1159 1844 
L 1159 0 
L 581 0 
L 581 3500 
L 1159 3500 
L 1159 2956 
Q 1341 3275 1631 3429 
Q 1922 3584 2338 3584 
Q 2397 3584 2469 3576 
Q 2541 3569 2628 3553 
L 2631 2963 
z
" id="DejaVuSans-72" transform="scale(0.015625)"/>
      <path d="M 1172 4494 
L 1172 3500 
L 2356 3500 
L 2356 3053 
L 1172 3053 
L 1172 1153 
Q 1172 725 1289 603 
Q 1406 481 1766 481 
L 2356 481 
L 2356 0 
L 1766 0 
Q 1100 0 847 248 
Q 594 497 594 1153 
L 594 3053 
L 172 3053 
L 172 3500 
L 594 3500 
L 594 4494 
L 1172 4494 
z
" id="DejaVuSans-74" transform="scale(0.015625)"/>
      <path d="M 1959 3097 
Q 1497 3097 1228 2736 
Q 959 2375 959 1747 
Q 959 1119 1226 758 
Q 1494 397 1959 397 
Q 2419 397 2687 759 
Q 2956 1122 2956 1747 
Q 2956 2369 2687 2733 
Q 2419 3097 1959 3097 
z
M 1959 3584 
Q 2709 3584 3137 3096 
Q 3566 2609 3566 1747 
Q 3566 888 3137 398 
Q 2709 -91 1959 -91 
Q 1206 -91 779 398 
Q 353 888 353 1747 
Q 353 2609 779 3096 
Q 1206 3584 1959 3584 
z
" id="DejaVuSans-6f" transform="scale(0.015625)"/>
      <path id="DejaVuSans-20" transform="scale(0.015625)"/>
      <path d="M 3513 2113 
L 3513 0 
L 2938 0 
L 2938 2094 
Q 2938 2591 2744 2837 
Q 2550 3084 2163 3084 
Q 1697 3084 1428 2787 
Q 1159 2491 1159 1978 
L 1159 0 
L 581 0 
L 581 3500 
L 1159 3500 
L 1159 2956 
Q 1366 3272 1645 3428 
Q 1925 3584 2291 3584 
Q 2894 3584 3203 3211 
Q 3513 2838 3513 2113 
z
" id="DejaVuSans-6e" transform="scale(0.015625)"/>
      <path d="M 603 4863 
L 1178 4863 
L 1178 0 
L 603 0 
L 603 4863 
z
" id="DejaVuSans-6c" transform="scale(0.015625)"/>
     </defs>
     <use xlink:href="#DejaVuSans-50"/>
     <use x="55.802734" xlink:href="#DejaVuSans-61"/>
     <use x="117.082031" xlink:href="#DejaVuSans-72"/>
     <use x="155.945312" xlink:href="#DejaVuSans-65"/>
     <use x="217.46875" xlink:href="#DejaVuSans-74"/>
     <use x="256.677734" xlink:href="#DejaVuSans-6f"/>
     <use x="317.859375" xlink:href="#DejaVuSans-20"/>
     <use x="349.646484" xlink:href="#DejaVuSans-46"/>
     <use x="399.916016" xlink:href="#DejaVuSans-72"/>
     <use x="438.779297" xlink:href="#DejaVuSans-6f"/>
     <use x="499.960938" xlink:href="#DejaVuSans-6e"/>
     <use x="563.339844" xlink:href="#DejaVuSans-74"/>
     <use x="602.548828" xlink:href="#DejaVuSans-20"/>
     <use x="634.335938" xlink:href="#DejaVuSans-50"/>
     <use x="694.638672" xlink:href="#DejaVuSans-6c"/>
     <use x="722.421875" xlink:href="#DejaVuSans-6f"/>
     <use x="783.603516" xlink:href="#DejaVuSans-74"/>
    </g>
   </g>
   <g id="legend_1">
    <g id="patch_7">
     <path d="M 330.0075 44.99625 
L 406.62625 44.99625 
Q 408.62625 44.99625 408.62625 42.99625 
L 408.62625 29.318125 
Q 408.62625 27.318125 406.62625 27.318125 
L 330.0075 27.318125 
Q 328.0075 27.318125 328.0075 29.318125 
L 328.0075 42.99625 
Q 328.0075 44.99625 330.0075 44.99625 
z
" style="fill:#ffffff;opacity:0.8;stroke:#cccccc;stroke-linejoin:miter;"/>
    </g>
    <g id="line2d_32"/>
    <g id="line2d_33">
     <g>
      <use style="fill:#ff0000;stroke:#ff0000;" x="342.0075" xlink:href="#m8183ae37e5" y="35.416562"/>
     </g>
    </g>
    <g id="text_21">
     <!-- MOEA PF -->
     <g transform="translate(360.0075 38.916562)scale(0.1 -0.1)">
      <defs>
       <path d="M 628 4666 
L 1569 4666 
L 2759 1491 
L 3956 4666 
L 4897 4666 
L 4897 0 
L 4281 0 
L 4281 4097 
L 3078 897 
L 2444 897 
L 1241 4097 
L 1241 0 
L 628 0 
L 628 4666 
z
" id="DejaVuSans-4d" transform="scale(0.015625)"/>
       <path d="M 2522 4238 
Q 1834 4238 1429 3725 
Q 1025 3213 1025 2328 
Q 1025 1447 1429 934 
Q 1834 422 2522 422 
Q 3209 422 3611 934 
Q 4013 1447 4013 2328 
Q 4013 3213 3611 3725 
Q 3209 4238 2522 4238 
z
M 2522 4750 
Q 3503 4750 4090 4092 
Q 4678 3434 4678 2328 
Q 4678 1225 4090 567 
Q 3503 -91 2522 -91 
Q 1538 -91 948 565 
Q 359 1222 359 2328 
Q 359 3434 948 4092 
Q 1538 4750 2522 4750 
z
" id="DejaVuSans-4f" transform="scale(0.015625)"/>
       <path d="M 628 4666 
L 3578 4666 
L 3578 4134 
L 1259 4134 
L 1259 2753 
L 3481 2753 
L 3481 2222 
L 1259 2222 
L 1259 531 
L 3634 531 
L 3634 0 
L 628 0 
L 628 4666 
z
" id="DejaVuSans-45" transform="scale(0.015625)"/>
       <path d="M 2188 4044 
L 1331 1722 
L 3047 1722 
L 2188 4044 
z
M 1831 4666 
L 2547 4666 
L 4325 0 
L 3669 0 
L 3244 1197 
L 1141 1197 
L 716 0 
L 50 0 
L 1831 4666 
z
" id="DejaVuSans-41" transform="scale(0.015625)"/>
      </defs>
      <use xlink:href="#DejaVuSans-4d"/>
      <use x="86.279297" xlink:href="#DejaVuSans-4f"/>
      <use x="164.990234" xlink:href="#DejaVuSans-45"/>
      <use x="228.173828" xlink:href="#DejaVuSans-41"/>
      <use x="296.582031" xlink:href="#DejaVuSans-20"/>
      <use x="328.369141" xlink:href="#DejaVuSans-50"/>
      <use x="388.671875" xlink:href="#DejaVuSans-46"/>
     </g>
    </g>
   </g>
  </g>
 </g>
 <defs>
  <clipPath id="p7148342b80">
   <rect height="266.112" width="357.12" x="56.50625" y="22.318125"/>
  </clipPath>
 </defs>
</svg>
